<?xml version="1.0" encoding="UTF-8" standalone="no"?>
<svg width="512px" height="512px" viewBox="0 0 512 512" version="1.1" xmlns="http://www.w3.org/2000/svg" xmlns:xlink="http://www.w3.org/1999/xlink">
    <g id="Page-1" stroke="none" stroke-width="1" fill="none" fill-rule="evenodd">
        <path d="M319.768,253.368 L279.832,253.368 C274.712,253.368 273.176,253.368 273.176,261.56 C273.176,261.56 274.2,369.08 274.2,412.088 L274.2,427.448 C274.2,445.88 260.376,455.096 246.552,455.096 C233.752,455.096 220.952,446.392 220.952,429.496 L220.952,427.448 C221.464,419.256 221.464,398.264 221.464,373.688 C221.464,324.536 220.952,261.56 220.952,261.56 C220.952,254.392 220.44,253.368 212.248,253.368 L194.328,253.368 C178.456,253.368 171.288,241.08 171.288,228.792 C171.288,216.504 178.968,203.704 194.328,203.704 L212.76,203.704 C217.88,203.704 220.952,203.704 220.952,197.048 C220.952,191.928 220.44,186.296 220.44,172.984 C220.44,74.168 299.288,67.512 313.112,67.512 C331.032,67.512 344.856,73.144 344.856,92.088 C344.856,104.888 336.152,117.688 320.28,117.688 L314.648,117.688 C273.688,117.688 272.664,162.232 272.664,178.616 C272.664,187.32 272.664,191.928 273.176,198.584 C273.176,203.704 276.76,203.704 280.344,203.704 L319.768,203.704 C335.128,203.704 342.808,215.992 342.808,228.28 C342.808,241.08 335.128,253.368 319.768,253.368 Z" id="f" fill="#000000"></path>
    </g>
</svg>
